<?xml version="1.0" encoding="UTF-8" standalone="no"?><!DOCTYPE svg PUBLIC "-//W3C//DTD SVG 1.1//EN" "http://www.w3.org/Graphics/SVG/1.1/DTD/svg11.dtd"><svg width="100%" height="100%" viewBox="0 0 2250 2250" version="1.1" xmlns="http://www.w3.org/2000/svg" xmlns:xlink="http://www.w3.org/1999/xlink" xml:space="preserve" xmlns:serif="http://www.serif.com/" style="fill-rule:evenodd;clip-rule:evenodd;stroke-linejoin:round;stroke-miterlimit:2;"><path d="M1125,100.626c565.367,0 1024.37,459.007 1024.37,1024.37c-0,565.367 -459.007,1024.37 -1024.37,1024.37c-565.367,-0 -1024.37,-459.007 -1024.37,-1024.37c0,-565.367 459.007,-1024.37 1024.37,-1024.37Zm-58.797,1048.39l-599.713,587.899c-4.732,4.639 -4.808,12.247 -0.169,16.979l16.81,17.147c4.638,4.732 12.246,4.808 16.978,0.169l600.879,-589.041l-0,841.442c-0,6.626 5.379,12.006 12.006,12.006l24.012,0c6.627,0 12.006,-5.38 12.006,-12.006l0,-874.595l874.595,0c6.626,0 12.006,-5.379 12.006,-12.006l0,-24.012c0,-6.627 -5.38,-12.006 -12.006,-12.006l-839.81,-0l599.713,-587.899c4.732,-4.639 4.808,-12.247 0.169,-16.979l-16.81,-17.147c-4.638,-4.732 -12.246,-4.808 -16.978,-0.169l-600.879,589.041l0,-841.442c0,-6.626 -5.379,-12.006 -12.006,-12.006l-24.012,-0c-6.627,-0 -12.006,5.38 -12.006,12.006l-0,874.595l-874.595,-0c-6.626,-0 -12.006,5.379 -12.006,12.006l-0,24.012c-0,6.627 5.38,12.006 12.006,12.006l839.81,0Z" style="fill:#5bb0ba;"/></svg>